<?xml version="1.0" standalone="no"?>
<!DOCTYPE svg PUBLIC "-//W3C//DTD SVG 20010904//EN"
 "http://www.w3.org/TR/2001/REC-SVG-20010904/DTD/svg10.dtd">
<svg version="1.0" xmlns="http://www.w3.org/2000/svg"
 width="250.000000pt" height="250.000000pt" viewBox="0 0 250.000000 250.000000"
 preserveAspectRatio="xMidYMid meet">
<metadata>
Created by potrace 1.14, written by Peter Selinger 2001-2017
</metadata>
<g transform="translate(0.000000,250.000000) scale(0.100000,-0.100000)"
fill="#000000" stroke="none">
<path d="M530 2406 c-7 -9 -16 -13 -21 -10 -5 3 -9 0 -9 -6 0 -6 -4 -9 -9 -6
-16 10 -21 -25 -7 -40 8 -8 13 -23 11 -34 -2 -11 0 -20 5 -20 5 0 9 -25 8 -55
-1 -30 -6 -55 -10 -55 -4 0 -5 -9 -3 -20 2 -12 -3 -21 -16 -25 -10 -4 -19 -11
-19 -16 0 -5 -26 -9 -59 -9 -40 0 -63 -5 -71 -15 -7 -8 -18 -15 -24 -15 -6 0
-16 -11 -23 -25 -7 -16 -8 -25 -1 -25 6 0 5 -6 -2 -15 -9 -10 -9 -15 -1 -15 6
0 10 -3 10 -7 -1 -5 0 -12 1 -18 1 -5 2 -45 2 -88 0 -73 -2 -80 -29 -103 -15
-13 -37 -32 -48 -42 -12 -10 -25 -17 -31 -15 -13 4 -35 -19 -38 -40 -2 -17
-41 -67 -53 -67 -11 0 -13 -11 -17 -160 -3 -112 -1 -127 15 -141 22 -19 26
-87 8 -121 -8 -15 -8 -22 1 -28 7 -4 8 -10 3 -13 -5 -3 -8 -23 -5 -44 2 -21 4
-46 5 -55 1 -10 5 -18 10 -18 5 0 4 -6 -2 -13 -6 -8 -8 -17 -5 -20 8 -8 11
-117 3 -117 -13 0 -19 -33 -9 -45 5 -6 7 -15 3 -18 -9 -10 -10 -59 -1 -85 5
-14 4 -21 -1 -17 -6 3 -9 -4 -8 -15 1 -11 5 -20 10 -20 4 0 5 -5 1 -12 -11
-17 -11 -58 -1 -58 4 0 5 -5 1 -12 -10 -16 -11 -119 -1 -125 4 -3 2 -12 -5
-21 -11 -13 -11 -15 2 -7 12 6 12 5 3 -5 -8 -8 -9 -20 -3 -36 6 -15 5 -26 -1
-30 -7 -4 -7 -10 0 -18 7 -9 7 -16 0 -23 -7 -7 -5 -15 5 -26 11 -10 12 -18 6
-22 -15 -9 56 -64 78 -60 9 1 20 -2 24 -8 8 -12 108 -16 108 -4 0 4 5 5 10 2
6 -3 10 -2 10 4 0 26 60 39 187 38 70 0 133 -3 138 -6 6 -4 31 -6 58 -6 26 1
47 -1 47 -5 0 -3 31 -5 70 -4 38 1 70 -2 70 -7 0 -4 12 -6 28 -4 15 2 33 -2
41 -9 12 -9 13 -8 6 3 -6 11 -5 12 6 5 16 -10 38 -15 57 -15 31 2 40 1 81 -4
24 -3 48 -8 55 -12 6 -4 54 -8 106 -10 94 -2 165 -8 165 -13 0 -2 18 -4 39 -5
22 -1 42 -7 44 -14 2 -7 17 -25 33 -41 25 -23 37 -27 84 -26 30 1 55 -2 55 -6
0 -14 65 -1 100 19 27 15 35 27 36 49 3 51 4 55 13 50 5 -3 11 1 15 9 3 8 11
15 18 15 17 0 79 56 71 64 -4 3 0 6 8 6 8 0 34 14 59 30 25 16 53 30 63 30 9
0 17 5 17 10 0 6 7 10 16 10 8 0 12 5 9 10 -6 10 13 14 48 11 9 -1 17 2 17 8
0 6 12 6 33 0 75 -20 186 9 181 49 -1 6 -2 19 -3 28 0 8 -5 12 -11 9 -5 -3 -3
9 4 26 14 33 11 69 -6 69 -6 0 -6 6 1 14 9 10 9 16 1 21 -8 5 -8 11 1 21 13
16 17 123 4 144 -6 9 -4 11 6 5 12 -7 12 -6 1 7 -7 9 -9 19 -4 22 5 3 8 17 6
31 -1 16 3 28 12 32 8 3 12 9 9 13 -3 4 7 11 20 14 14 4 23 11 20 16 -3 5 -1
11 5 15 16 10 4 81 -19 104 -12 12 -25 21 -30 21 -16 0 -18 23 -17 180 1 85
-3 161 -7 168 -5 6 -6 12 -1 12 5 0 2 5 -6 10 -11 7 -11 10 -2 10 8 0 10 6 5
18 -10 22 -10 53 1 70 12 20 14 72 1 72 -5 0 -16 9 -23 20 -7 12 -17 18 -22
15 -6 -3 -10 -2 -10 3 0 4 -39 8 -86 7 -47 0 -88 3 -90 7 -3 4 -14 8 -25 8
-10 0 -19 4 -19 8 0 5 -17 9 -37 10 -146 5 -259 16 -285 27 -10 4 -25 4 -33 1
-9 -3 -18 1 -21 9 -4 8 -10 12 -15 9 -5 -3 -9 2 -9 11 0 9 -4 13 -10 10 -11
-7 -11 -6 -15 43 -1 17 2 32 6 32 5 0 9 9 9 20 0 11 5 20 11 20 5 0 8 4 4 9
-3 5 4 12 15 16 11 3 20 13 20 21 0 8 7 17 15 20 13 5 13 9 3 22 -11 13 -11
14 1 7 10 -6 13 -4 9 6 -3 8 0 23 7 32 7 10 11 27 8 37 -3 11 -1 20 4 20 5 0
9 11 9 25 0 14 -4 25 -8 25 -4 0 -8 7 -8 15 0 8 -12 17 -27 21 -16 3 -44 10
-63 14 -19 5 -81 10 -137 12 -57 2 -103 6 -103 10 0 4 -13 3 -30 -2 -16 -5
-30 -5 -30 0 0 4 -8 6 -18 3 -11 -2 -35 2 -55 11 -20 8 -39 11 -42 6 -3 -5
-18 -5 -35 0 -28 8 -104 14 -125 10 -5 -1 -13 -2 -17 -1 -5 0 -8 -6 -8 -15 0
-8 -5 -12 -11 -8 -6 3 -15 1 -19 -6 -4 -7 -24 -14 -44 -15 -20 -1 -39 -5 -42
-8 -7 -6 -54 16 -54 26 0 5 -4 5 -10 2 -5 -3 -10 1 -10 10 0 9 -5 13 -10 10
-6 -3 -15 6 -20 20 -5 14 -14 23 -20 20 -5 -3 -10 1 -10 9 0 14 -12 20 -32 17
-5 0 -8 4 -8 9 0 5 -3 9 -7 9 -20 -3 -34 3 -53 23 -11 12 -23 19 -26 15 -4 -4
-13 -2 -21 4 -7 6 -13 8 -13 5 0 -4 -10 2 -22 14 -12 11 -28 21 -35 21 -33 3
-64 19 -57 30 3 5 -1 9 -10 9 -8 0 -21 2 -29 5 -7 3 -20 -1 -27 -9z"/>
</g>
</svg>
